HIERARCHY
ROOT hip
{
	OFFSET 0.000000 0.000000 0.000000
	CHANNELS 6 Xposition Yposition Zposition Xrotation Zrotation Yrotation 
	JOINT abdomen
	{
		OFFSET 0.000000 3.422050 0.000000
		CHANNELS 3 Xrotation Zrotation Yrotation 
		JOINT chest
		{
			OFFSET 0.000000 8.486693 -0.684411
			CHANNELS 3 Xrotation Zrotation Yrotation 
			JOINT neck
			{
				OFFSET 0.000000 10.266162 -0.273764
				CHANNELS 3 Xrotation Zrotation Yrotation 
				JOINT head
				{
					OFFSET 0.000000 3.148285 0.000000
					CHANNELS 3 Xrotation Zrotation Yrotation 
					End Site
					{
						OFFSET 0.000000 3.148289 0.000000
					}
				}
			}
			JOINT lCollar
			{
				OFFSET 3.422053 6.707223 -0.821293
				CHANNELS 3 Yrotation Zrotation Xrotation 
				JOINT lShldr
				{
					OFFSET 3.285171 0.000000 0.000000
					CHANNELS 3 Zrotation Yrotation Xrotation 
					JOINT lForeArm
					{
						OFFSET 10.129278 0.000000 0.000000
						CHANNELS 3 Yrotation Zrotation Xrotation 
						JOINT lHand
						{
							OFFSET 8.486692 0.000000 0.000000
							CHANNELS 3 Zrotation Yrotation Xrotation 
							End Site
							{
								OFFSET 4.106464 0.000000 0.000000
							}
						}
					}
				}
			}
			JOINT rCollar
			{
				OFFSET -3.558935 6.707223 -0.821293
				CHANNELS 3 Yrotation Zrotation Xrotation 
				JOINT rShldr
				{
					OFFSET -3.148289 0.000000 0.000000
					CHANNELS 3 Zrotation Yrotation Xrotation 
					JOINT rForeArm
					{
						OFFSET -10.266159 0.000000 0.000000
						CHANNELS 3 Yrotation Zrotation Xrotation 
						JOINT rHand
						{
							OFFSET -8.349810 0.000000 0.000000
							CHANNELS 3 Zrotation Yrotation Xrotation 
							End Site
							{
								OFFSET -4.106464 0.000000 0.000000
							}
						}
					}
				}
			}
		}
	}
	JOINT lThigh
	{
		OFFSET 5.338403 -1.642589 1.368821
		CHANNELS 3 Xrotation Zrotation Yrotation 
		JOINT lShin
		{
			OFFSET -2.053232 -20.121670 0.000000
			CHANNELS 3 Xrotation Zrotation Yrotation 
			JOINT lFoot
			{
				OFFSET 0.000000 -19.300380 -1.231939
				CHANNELS 3 Xrotation Yrotation Zrotation 
				End Site
				{
					OFFSET 0.000000 -2.463878 4.653993
				}
			}
		}
	}
	JOINT rThigh
	{
		OFFSET -5.338403 -1.642589 1.368821
		CHANNELS 3 Xrotation Zrotation Yrotation 
		JOINT rShin
		{
			OFFSET 2.053232 -20.121670 0.000000
			CHANNELS 3 Xrotation Zrotation Yrotation 
			JOINT rFoot
			{
				OFFSET 0.000000 -19.300380 -1.231939
				CHANNELS 3 Xrotation Yrotation Zrotation 
				End Site
				{
					OFFSET 0.000000 -2.463878 4.653993
				}
			}
		}
	}
}
MOTION
Frames: 11
Frame Time: 0.033264
0.000000 43.528500 0.000000 0.000000 0.000000 0.000000 0.000000 0.000000 0.000000 0.000000 0.000000 0.000000 0.000000 0.000000 0.000000 0.000000 0.000000 0.000000 0.000000 0.000000 0.000000 0.000000 0.000000 0.000000 0.000000 0.000000 0.000000 0.000000 0.000000 0.000000 0.000000 0.000000 0.000000 0.000000 0.000000 0.000000 0.000000 0.000000 0.000000 0.000000 0.000000 0.000000 0.000000 0.000000 0.000000 0.000000 0.000000 0.000000 0.000000 0.000000 0.000000 0.000000 0.000000 0.000000 0.000000 0.000000 0.000000 0.000000 0.000000 0.000000 
-10.191681 5.564243 -9.476800 153.996277 -81.996582 171.999969 62.655457 24.276482 -12.578408 30.567364 -0.624251 17.550116 -0.077354 -21.000315 0.062351 -0.026231 -0.942481 0.000216 0.278464 -8.002677 -0.003308 -19.002407 -34.002338 0.000032 -89.167252 0.080910 -29.002224 -7.000325 0.000000 0.000000 -0.002182 7.999156 -0.194408 32.728134 80.996124 -12.460051 20.940065 16.014662 0.000112 19.998167 0.000000 0.000000 28.039322 -7.558507 17.916609 50.802273 -7.462981 0.154194 8.972756 0.929127 2.651299 8.356577 9.552825 7.682925 10.506249 2.336621 0.160417 12.022335 17.922394 -2.178467 
-10.191681 5.564243 -9.476800 153.996277 -81.996582 171.999969 62.655457 24.276482 -12.578408 30.567364 -0.624251 17.550116 -0.077095 -21.000317 0.062143 -0.002166 -0.731323 -0.130394 0.278464 -8.002677 -0.003308 -19.002407 -34.002338 0.000031 -89.075562 0.185763 -28.993406 -7.000325 0.000000 0.000000 -0.002182 7.999157 -0.194408 32.728134 80.996124 -12.460051 20.940258 16.014606 0.000108 19.998167 0.000000 0.000000 28.039322 -7.558508 17.916609 50.802544 -7.462992 0.154197 8.972464 0.929144 2.651312 8.356695 9.552852 7.683303 10.506015 2.336621 0.160413 12.022192 17.922396 -2.178468 
-10.191681 5.564243 -9.476800 153.996307 -81.996605 171.999969 62.655457 24.276482 -12.578408 30.567364 -0.624251 17.550117 -0.076836 -21.000317 0.061934 0.021428 -0.520013 -0.260969 0.278464 -8.002677 -0.003308 -19.002407 -34.002338 0.000032 -88.983879 0.290654 -28.984751 -7.000325 0.000000 0.000000 -0.002182 7.999156 -0.194408 32.728134 80.996124 -12.460051 20.940451 16.014549 0.000103 19.998167 0.000000 0.000000 28.039322 -7.558507 17.916609 50.802818 -7.463002 0.154201 8.972169 0.929162 2.651324 8.356812 9.552877 7.683681 10.505778 2.336622 0.160408 12.022049 17.922394 -2.178469 
-10.191681 5.564243 -9.476800 153.996292 -81.996613 171.999969 62.655457 24.276484 -12.578409 30.567371 -0.624251 17.550116 -0.076578 -21.000317 0.061726 0.044549 -0.308555 -0.391512 0.278464 -8.002677 -0.003308 -19.002407 -34.002338 0.000031 -88.892197 0.395566 -28.976269 -7.000325 0.000000 0.000000 -0.002182 7.999157 -0.194408 32.728134 80.996124 -12.460051 20.940641 16.014496 0.000098 19.998167 0.000000 0.000000 28.039324 -7.558508 17.916611 50.803093 -7.463012 0.154204 8.971875 0.929179 2.651336 8.356931 9.552904 7.684060 10.505545 2.336622 0.160403 12.021908 17.922398 -2.178471 
-10.191681 5.564243 -9.476800 153.996277 -81.996582 171.999969 62.655472 24.276485 -12.578410 30.567368 -0.624251 17.550117 -0.076319 -21.000320 0.061517 0.067198 -0.096952 -0.522026 0.278464 -8.002678 -0.003308 -19.002409 -34.002346 0.000032 -88.800529 0.500513 -28.967953 -7.000325 0.000000 0.000000 -0.002182 7.999156 -0.194408 32.728134 80.996124 -12.460051 20.940834 16.014439 0.000094 19.998167 0.000000 0.000000 28.039326 -7.558508 17.916609 50.803364 -7.463023 0.154207 8.971581 0.929197 2.651348 8.357049 9.552930 7.684437 10.505309 2.336622 0.160398 12.021765 17.922396 -2.178471 
-10.191681 5.564243 -9.476800 153.996307 -81.996605 171.999969 62.655464 24.276485 -12.578408 30.567368 -0.624251 17.550117 -0.076060 -21.000317 0.061309 0.089374 0.114794 -0.652513 0.278464 -8.002678 -0.003308 -19.002407 -34.002338 0.000031 -88.708839 0.605487 -28.959797 -7.000325 0.000000 0.000000 -0.002182 7.999158 -0.194408 32.728149 80.996132 -12.460037 20.941025 16.014383 0.000090 19.998167 0.000000 0.000000 28.039324 -7.558508 17.916609 50.803638 -7.463033 0.154211 8.971288 0.929214 2.651360 8.357167 9.552957 7.684815 10.505075 2.336622 0.160393 12.021623 17.922398 -2.178473 
-10.191681 5.564243 -9.476800 153.996262 -81.996544 171.999969 62.655457 24.276480 -12.578406 30.567364 -0.624251 17.550116 -0.075801 -21.000315 0.061100 0.111078 0.326679 -0.782975 0.278464 -8.002676 -0.003308 -19.002405 -34.002335 0.000032 -88.617165 0.710489 -28.951820 -7.000325 0.000000 0.000000 -0.002182 7.999156 -0.194408 32.728123 80.996101 -12.460039 20.941216 16.014324 0.000085 19.998167 0.000000 0.000000 28.039320 -7.558507 17.916609 50.803905 -7.463043 0.154214 8.970992 0.929232 2.651372 8.357284 9.552982 7.685192 10.504839 2.336622 0.160389 12.021478 17.922394 -2.178473 
-10.191681 5.564243 -9.476800 153.996246 -81.996513 171.999954 62.655457 24.276480 -12.578406 30.567364 -0.624251 17.550116 -0.075543 -21.000315 0.060891 0.132308 0.538701 -0.913414 0.278464 -8.002677 -0.003308 -19.002405 -34.002335 0.000032 -88.525482 0.815516 -28.943998 -7.000325 0.000000 0.000000 -0.002182 7.999156 -0.194408 32.728100 80.996094 -12.460052 20.941404 16.014269 0.000080 19.998167 0.000000 0.000000 28.039320 -7.558507 17.916607 50.804176 -7.463053 0.154217 8.970699 0.929249 2.651385 8.357402 9.553008 7.685571 10.504603 2.336623 0.160384 12.021336 17.922394 -2.178475 
-10.191681 5.564243 -9.476800 153.996262 -81.996536 171.999954 62.655457 24.276480 -12.578408 30.567364 -0.624251 17.550116 -0.075284 -21.000317 0.060683 0.153065 0.750856 -1.043831 0.278464 -8.002677 -0.003308 -19.002407 -34.002338 0.000032 -88.433807 0.920571 -28.936354 -7.000324 0.000000 0.000000 -0.002182 7.999156 -0.194408 32.728123 80.996101 -12.460039 20.941595 16.014214 0.000076 19.998165 0.000000 0.000000 28.039318 -7.558507 17.916607 50.804451 -7.463064 0.154221 8.970406 0.929266 2.651397 8.357519 9.553035 7.685949 10.504369 2.336623 0.160379 12.021194 17.922396 -2.178476 
-10.191681 5.564243 -9.476800 153.996277 -81.996582 171.999969 62.655457 24.276482 -12.578408 30.567364 -0.624251 17.550116 -0.075025 -21.000317 0.060474 0.173347 0.963141 -1.174231 0.278464 -8.002676 -0.003308 -19.002407 -34.002338 0.000032 -88.342102 1.025651 -28.928856 -7.000325 0.000000 0.000000 -0.002182 7.999156 -0.194408 32.728111 80.996101 -12.460052 20.941790 16.014158 0.000071 19.998167 0.000000 0.000000 28.039322 -7.558507 17.916609 50.804726 -7.463075 0.154224 8.970111 0.929284 2.651409 8.357636 9.553062 7.686327 10.504133 2.336623 0.160374 12.021050 17.922396 -2.178477 
